<svg id="visual" viewBox="0 0 540 960" width="540" height="960" xmlns="http://www.w3.org/2000/svg" xmlns:xlink="http://www.w3.org/1999/xlink" version="1.1"><rect x="0" y="0" width="540" height="960" fill="#7fb9d7"></rect><path d="M195 0L191.8 22.8C188.7 45.7 182.3 91.3 171.8 137C161.3 182.7 146.7 228.3 149.7 274C152.7 319.7 173.3 365.3 183 411.2C192.7 457 191.3 503 176.7 548.8C162 594.7 134 640.3 124 686C114 731.7 122 777.3 124.7 823C127.3 868.7 124.7 914.3 123.3 937.2L122 960L0 960L0 937.2C0 914.3 0 868.7 0 823C0 777.3 0 731.7 0 686C0 640.3 0 594.7 0 548.8C0 503 0 457 0 411.2C0 365.3 0 319.7 0 274C0 228.3 0 182.7 0 137C0 91.3 0 45.7 0 22.8L0 0Z" fill="#366da3" stroke-linecap="round" stroke-linejoin="miter"></path></svg>